<?xml version="1.0" standalone="no"?>
<!DOCTYPE svg PUBLIC "-//W3C//DTD SVG 20010904//EN"
 "http://www.w3.org/TR/2001/REC-SVG-20010904/DTD/svg10.dtd">
<svg version="1.0" xmlns="http://www.w3.org/2000/svg"
 width="512.000000pt" height="512.000000pt" viewBox="0 0 512.000000 512.000000"
 preserveAspectRatio="xMidYMid meet">

<g transform="translate(0.000000,512.000000) scale(0.100000,-0.100000)"
fill="#000000" stroke="none">
<path d="M1275 4830 c-527 -60 -957 -510 -991 -1039 -32 -481 257 -944 698
-1120 153 -62 235 -76 428 -76 148 1 188 4 259 23 216 57 375 147 526 297 212
211 320 449 332 733 15 328 -89 609 -308 837 -168 175 -347 277 -569 325 -105
23 -269 31 -375 20z m210 -255 c109 -28 204 -114 241 -217 19 -53 22 -159 6
-215 -18 -60 -70 -132 -126 -174 -171 -129 -421 -68 -517 126 -21 43 -24 64
-24 150 0 92 2 104 29 153 51 91 146 163 239 182 64 12 88 11 152 -5z m31
-896 c179 -32 327 -129 424 -281 44 -67 88 -192 92 -260 l3 -43 -60 -29 c-173
-82 -352 -120 -570 -120 -209 -1 -372 34 -557 117 -67 29 -68 31 -68 67 0 50
35 161 73 235 18 34 65 93 107 136 146 148 354 215 556 178z"/>
<path d="M1340 4531 c-94 -20 -186 -102 -216 -193 -22 -66 -15 -167 15 -225
28 -57 78 -105 137 -134 68 -33 189 -34 251 -1 65 34 110 78 139 137 69 142 4
326 -140 394 -47 23 -135 33 -186 22z"/>
<path d="M1295 3626 c-185 -43 -326 -149 -405 -305 -25 -50 -60 -160 -60 -189
0 -14 141 -68 253 -97 54 -14 148 -30 208 -37 188 -21 428 15 612 92 71 29 77
34 77 61 0 15 -7 50 -16 76 -63 189 -203 327 -386 384 -81 26 -208 32 -283 15z"/>
<path d="M3246 4226 c-202 -106 -369 -196 -370 -200 -2 -15 639 -575 645 -563
3 7 11 56 18 111 6 54 14 103 17 107 10 16 140 9 220 -11 261 -67 408 -303
416 -673 3 -118 5 -119 55 -23 139 273 159 554 52 735 -72 119 -175 216 -316
297 -86 49 -249 115 -331 134 -30 7 -56 19 -59 26 -3 8 2 67 11 131 9 64 15
118 13 119 -1 1 -168 -84 -371 -190z"/>
<path d="M3496 2514 c-216 -42 -405 -143 -569 -303 -173 -168 -287 -382 -328
-616 -18 -105 -7 -360 21 -465 103 -389 401 -695 783 -804 595 -171 1221 179
1392 778 48 169 54 321 19 514 -55 305 -239 574 -513 750 -86 55 -248 119
-358 141 -120 25 -337 27 -447 5z m351 -263 c77 -37 137 -96 171 -170 22 -46
26 -71 27 -141 0 -71 -4 -94 -26 -141 -33 -70 -91 -130 -161 -165 -42 -22 -71
-28 -140 -32 -81 -4 -92 -2 -151 26 -80 37 -141 96 -175 171 -22 46 -26 71
-27 141 0 71 4 94 26 141 31 67 91 129 151 160 63 32 85 37 168 38 63 1 85 -4
137 -28z m18 -886 c118 -31 201 -79 289 -168 91 -92 134 -163 165 -277 31
-110 29 -126 -19 -150 -64 -33 -187 -75 -290 -101 -84 -21 -119 -24 -295 -24
-158 0 -216 4 -275 18 -99 23 -220 63 -298 99 l-64 28 7 53 c32 245 229 462
471 521 80 19 235 20 309 1z"/>
<path d="M3607 2216 c-38 -14 -102 -58 -125 -86 -7 -8 -25 -37 -39 -65 -23
-42 -27 -62 -26 -125 0 -48 6 -89 17 -113 22 -51 80 -113 135 -145 41 -24 56
-27 136 -27 81 0 95 3 144 30 203 113 195 409 -14 518 -51 26 -174 33 -228 13z"/>
<path d="M3530 1304 c-182 -62 -310 -190 -371 -371 -33 -101 -29 -111 71 -151
310 -124 705 -118 1003 15 57 26 57 26 51 62 -37 210 -206 395 -413 453 -101
28 -246 24 -341 -8z"/>
<path d="M868 2134 c-107 -223 -141 -403 -107 -566 16 -80 81 -206 139 -271
120 -133 340 -259 549 -312 40 -11 76 -26 79 -33 3 -8 -2 -66 -11 -130 -10
-63 -16 -116 -14 -118 4 -4 739 382 741 390 2 15 -639 575 -645 563 -3 -7 -11
-56 -18 -111 -6 -54 -14 -103 -18 -109 -4 -6 -42 -8 -102 -4 -159 9 -261 56
-359 162 -120 131 -164 275 -185 599 -2 39 -3 38 -49 -60z"/>
</g>
</svg>
